<?xml version="1.0" encoding="iso-8859-1"?>
<!-- Generator: Adobe Illustrator 17.1.0, SVG Export Plug-In . SVG Version: 6.00 Build 0)  -->
<!DOCTYPE svg PUBLIC "-//W3C//DTD SVG 1.1//EN" "http://www.w3.org/Graphics/SVG/1.1/DTD/svg11.dtd">
<svg version="1.1" id="Capa_1" xmlns="http://www.w3.org/2000/svg" xmlns:xlink="http://www.w3.org/1999/xlink" x="0px" y="0px"
	 viewBox="0 0 405.693 405.693" style="enable-background:new 0 0 405.693 405.693;" xml:space="preserve">
<path id="XMLID_587_" d="M247.391,209.771c0,3.866-3.134,7-7,7h-1.858c-3.866,0-7-3.134-7-7s3.134-7,7-7h1.858
	C244.256,202.771,247.391,205.905,247.391,209.771z M209.672,171.676c0,17.61-14.326,31.936-31.936,31.936h-62.512
	c-17.609,0-31.936-14.326-31.936-31.936s14.326-31.936,31.936-31.936h62.512C195.346,139.74,209.672,154.066,209.672,171.676z
	 M195.672,171.676c0-9.89-8.046-17.936-17.936-17.936h-62.512c-9.89,0-17.936,8.046-17.936,17.936
	c0,9.89,8.046,17.936,17.936,17.936h62.512C187.626,189.612,195.672,181.566,195.672,171.676z M240.391,126.581h-1.858
	c-3.866,0-7,3.134-7,7s3.134,7,7,7h1.858c3.866,0,7-3.134,7-7S244.256,126.581,240.391,126.581z M168.615,164.676h-44.268
	c-3.866,0-7,3.134-7,7s3.134,7,7,7h44.268c3.866,0,7-3.134,7-7S172.481,164.676,168.615,164.676z M292.184,202.771h-1.858
	c-3.866,0-7,3.134-7,7s3.134,7,7,7h1.858c3.866,0,7-3.134,7-7S296.05,202.771,292.184,202.771z M258.966,164.676h-1.857
	c-3.866,0-7,3.134-7,7s3.134,7,7,7h1.857c3.866,0,7-3.134,7-7S262.832,164.676,258.966,164.676z M369.005,171.676
	c0,29.242-12.775,56.684-35.972,77.271c-22.96,20.378-53.435,31.602-85.811,31.602c-17.289,0-33.915-3.119-49.414-9.269
	c-15.213-6.039-28.675-14.649-40.011-25.592c-0.166-0.16-0.323-0.327-0.472-0.502c-2.141-2.518-5.625-4.021-9.321-4.021h-33.91
	c-20.424,0-39.729-7.15-54.356-20.133c-14.864-13.193-23.05-30.721-23.05-49.355c0-18.635,8.186-36.163,23.05-49.356
	c14.629-12.983,33.933-20.133,54.356-20.133h32.941c0.316-0.044,0.639-0.068,0.967-0.068c3.361,0,6.527-1.229,8.687-3.371
	c11.555-11.458,25.389-20.432,41.118-26.675c0,0,0,0,0,0c15.498-6.15,32.123-9.269,49.414-9.269
	c32.376,0,62.851,11.223,85.811,31.602C356.23,114.992,369.005,142.434,369.005,171.676z M355.005,171.676
	c0-25.184-11.104-48.907-31.265-66.8c-20.396-18.103-47.57-28.072-76.518-28.072c-15.515,0-30.402,2.787-44.25,8.282
	c-13.767,5.464-26.362,13.626-36.424,23.603c-4.506,4.469-10.804,7.135-17.423,7.408c-0.365,0.06-0.739,0.091-1.12,0.091h-33.91
	c-16.995,0-32.999,5.896-45.063,16.604C57.204,143.29,50.689,157.1,50.689,171.676c0,14.576,6.515,28.386,18.343,38.885
	c12.064,10.707,28.068,16.604,45.063,16.604h33.91c7.731,0,14.902,3.153,19.738,8.665c9.971,9.568,21.822,17.116,35.23,22.438
	c13.848,5.495,28.736,8.282,44.249,8.282c28.947,0,56.121-9.97,76.518-28.072C343.902,220.583,355.005,196.86,355.005,171.676z
	 M405.693,234.017c0,37.938-16.592,73.556-46.719,100.294c-29.891,26.53-69.579,41.141-111.751,41.141
	c-22.285,0-43.924-4.104-64.317-12.196c-16.78-6.661-32.007-15.8-45.302-27.188h-23.508c-30.222,0-58.739-10.538-80.297-29.672
	C12.003,287.05,0,261.345,0,234.017v-50.159c0-2.021,0-10.133,0-12.182c0-27.329,12.003-53.033,33.798-72.379
	c21.559-19.134,50.075-29.672,80.297-29.672h23.508c13.296-11.388,28.523-20.527,45.302-27.187
	c20.392-8.093,42.032-12.196,64.318-12.196c42.172,0,81.859,14.61,111.751,41.14c30.127,26.738,46.719,62.357,46.719,100.294
	C405.693,173.726,405.693,234.017,405.693,234.017z M391.693,230.007c-7.835,15.444-18.841,29.646-32.719,41.963
	c-29.892,26.53-69.579,41.141-111.751,41.141c-22.286,0-43.926-4.104-64.317-12.196c-16.78-6.661-32.007-15.8-45.302-27.188h-23.508
	c-30.223,0-58.74-10.538-80.297-29.672c-7.933-7.041-14.567-14.922-19.799-23.419v13.381c0,23.271,10.332,45.257,29.092,61.908
	c18.994,16.858,44.21,26.143,71.003,26.143h15.466v-27.115c0-3.866,3.134-7,7-7s7,3.134,7,7v27.961
	c0.467,0.253,0.906,0.56,1.309,0.917c12.545,11.127,27.08,20.014,43.2,26.412c18.742,7.438,38.644,11.209,59.153,11.209
	c38.744,0,75.131-13.357,102.458-37.612c27.092-24.044,42.012-55.944,42.012-89.823V230.007z M391.693,171.676
	c0-33.879-14.92-65.779-42.012-89.824c-27.328-24.254-63.714-37.611-102.458-37.611c-20.51,0-40.412,3.771-59.153,11.209
	c-16.119,6.398-30.654,15.284-43.199,26.411c-1.281,1.136-2.933,1.763-4.645,1.763h-26.13c-26.793,0-52.01,9.284-71.004,26.143
	C24.332,126.419,14,148.406,14,171.676c0,1.804,0.208,5.646,0.213,5.778c1.564,21.114,11.679,40.865,28.879,56.13
	c18.993,16.858,44.209,26.143,71.003,26.143h26.13c1.712,0,3.364,0.627,4.645,1.763c12.545,11.127,27.08,20.014,43.2,26.412
	c18.741,7.438,38.643,11.209,59.153,11.209c38.744,0,75.131-13.357,102.458-37.611c25.503-22.635,40.22-52.23,41.859-83.885
	c0.003-0.138,0.01-0.275,0.021-0.412C391.649,175.367,391.693,173.525,391.693,171.676z M292.184,126.581h-1.858
	c-3.866,0-7,3.134-7,7s3.134,7,7,7h1.858c3.866,0,7-3.134,7-7S296.05,126.581,292.184,126.581z M310.759,164.676h-1.858
	c-3.866,0-7,3.134-7,7s3.134,7,7,7h1.858c3.866,0,7-3.134,7-7S314.625,164.676,310.759,164.676z"/>
<g>
</g>
<g>
</g>
<g>
</g>
<g>
</g>
<g>
</g>
<g>
</g>
<g>
</g>
<g>
</g>
<g>
</g>
<g>
</g>
<g>
</g>
<g>
</g>
<g>
</g>
<g>
</g>
<g>
</g>
</svg>
