<?xml version="1.0" encoding="iso-8859-1"?>
<!-- Generator: Adobe Illustrator 18.0.0, SVG Export Plug-In . SVG Version: 6.00 Build 0)  -->
<!DOCTYPE svg PUBLIC "-//W3C//DTD SVG 1.1//EN" "http://www.w3.org/Graphics/SVG/1.1/DTD/svg11.dtd">
<svg version="1.1" id="Capa_1" xmlns="http://www.w3.org/2000/svg" xmlns:xlink="http://www.w3.org/1999/xlink" x="0px" y="0px"
	 viewBox="0 0 59 59" style="enable-background:new 0 0 59 59;" xml:space="preserve">
<g>
	<path d="M46.998,18.991c-0.001-0.115-0.037-0.226-0.078-0.335c-0.012-0.032-0.009-0.068-0.024-0.099l-0.001-0.004L40,4.763V1
		c0-0.302-0.136-0.587-0.37-0.776c-0.234-0.19-0.542-0.264-0.836-0.202l-19,4C19.331,4.119,19,4.527,19,5v3.685l-6.819,9.742
		c-0.006,0.009-0.006,0.021-0.012,0.03c-0.073,0.112-0.124,0.236-0.148,0.368c-0.004,0.02-0.005,0.038-0.007,0.058
		C12.009,18.922,12,18.96,12,19v13v15v5c0,0.4,0.238,0.762,0.606,0.919l14,6c0.011,0.005,0.022,0.003,0.033,0.007
		C26.755,58.97,26.875,59,27,59c0.085,0,0.17-0.011,0.254-0.033l19-5C46.694,53.851,47,53.454,47,53V38V22v-3L46.998,18.991z
		 M33,5.241V3.285l2-0.421V4.82L33,5.241z M31,5.662l-2,0.421V4.127l2-0.421V5.662z M27,6.504l-2,0.421V5
		c0-0.01-0.006-0.019-0.006-0.029L27,4.548V6.504z M21.439,9.719l9.721-2.047l7.291-1.535l6.104,12.209l-6.182,1.627L27.553,22.82
		l-5.095-10.918L21.439,9.719z M45,21.535L28,35.851V24.77l17-4.474V21.535z M14,20.419l12,4.286v11.779l-12-5.143V20.419z
		 M14,33.516l12,5.143v12.824l-12-5.143V33.516z M28,38.465l17-14.315v13.366L28,50.936V38.465z M38,4.188l-1,0.21V2.443l1-0.21
		V4.188z M21,5.811l2-0.421v1.956l-2,0.421V5.811z M19.826,10.992l2.628,5.63l2.627,5.63l-10.51-3.754L19.826,10.992z M14,48.516
		l12,5.143v2.824l-12-5.143V48.516z M28,56.703v-3.218l17-13.421v12.166L28,56.703z"/>
	<path d="M32.1,17.862c0.464,0.547,1.222,1.117,2.359,1.117c0.308,0,0.644-0.041,1.009-0.137c1.714-0.449,2.282-1.609,2.457-2.504
		c0.194-0.993-0.027-2.037-0.21-2.735c-0.942-3.599-2.98-3.872-4.524-3.469c-1.545,0.404-3.188,1.642-2.247,5.24
		C31.125,16.073,31.444,17.092,32.1,17.862z M33.696,12.07c0.167-0.044,0.335-0.078,0.502-0.078c0.57,0,1.13,0.392,1.582,2.117
		c0.133,0.51,0.297,1.255,0.182,1.846c-0.074,0.378-0.246,0.755-1,0.952c-0.753,0.198-1.088-0.047-1.338-0.34
		c-0.39-0.46-0.612-1.189-0.746-1.698C32.293,12.637,32.962,12.262,33.696,12.07z"/>
</g>
<g>
</g>
<g>
</g>
<g>
</g>
<g>
</g>
<g>
</g>
<g>
</g>
<g>
</g>
<g>
</g>
<g>
</g>
<g>
</g>
<g>
</g>
<g>
</g>
<g>
</g>
<g>
</g>
<g>
</g>
</svg>
