<?xml version="1.0" encoding="iso-8859-1"?>
<!-- Generator: Adobe Illustrator 19.0.0, SVG Export Plug-In . SVG Version: 6.00 Build 0)  -->
<svg version="1.1" id="Layer_1" xmlns="http://www.w3.org/2000/svg" xmlns:xlink="http://www.w3.org/1999/xlink" x="0px" y="0px"
	 viewBox="0 0 512 512" style="enable-background:new 0 0 512 512;" xml:space="preserve">
<g>
	<g>
		<path d="M455.263,347.915l-31.216-118.97V9.516c0-5.257-4.261-9.516-9.516-9.516H97.467c-5.255,0-9.516,4.259-9.516,9.516v181.804
			l-30.925,82.869c-0.979,2.624-0.752,5.548,0.62,7.991c1.373,2.442,3.753,4.154,6.504,4.682l23.8,4.56v211.064
			c0,5.257,4.261,9.516,9.516,9.516h317.066c5.255,0,9.516-4.259,9.516-9.516V355.803l20.22,3.874c0.596,0.114,1.195,0.17,1.79,0.17
			c2.609,0,5.135-1.075,6.952-3.017C455.241,354.44,456.092,351.075,455.263,347.915z M106.981,19.032h298.034v200.434l-11.356-1.33
			v-58.193c0-5.257-4.261-9.516-9.516-9.516H321.34c-5.255,0-9.516,4.259-9.516,9.516v48.609l-14.908-1.746v-46.863
			c0-5.257-4.26-9.516-9.516-9.516h-62.804c-5.255,0-9.516,4.259-9.516,9.516v37.278l-14.908-1.746v-35.532
			c0-5.257-4.261-9.516-9.516-9.516h-62.792c-5.255,0-9.516,4.259-9.516,9.516v25.948l-11.368-1.332V19.032z M374.629,169.458
			v46.448l-43.773-5.127v-41.321H374.629z M277.885,169.457v35.118l-43.773-5.127v-29.991H277.885z M181.141,169.458v23.787
			l-43.76-5.126v-18.661H181.141z M405.017,492.968h-0.001H106.982V295.067l298.034,57.091V492.968z M78.794,270.289l24.982-66.944
			l303.196,35.51l26.05,99.288L78.794,270.289z"/>
	</g>
</g>
<g>
	<g>
		<path d="M190.662,28.374H127.86c-5.255,0-9.516,4.259-9.516,9.516v91.346c0,5.257,4.261,9.516,9.516,9.516h62.802
			c5.255,0,9.516-4.259,9.516-9.516V37.889C200.178,32.633,195.917,28.374,190.662,28.374z M181.146,119.72h-43.77V47.405h43.77
			V119.72z"/>
	</g>
</g>
<g>
	<g>
		<path d="M287.4,28.374h-62.802c-5.255,0-9.516,4.259-9.516,9.516v91.346c0,5.257,4.261,9.516,9.516,9.516H287.4
			c5.255,0,9.516-4.259,9.516-9.516V37.889C296.916,32.633,292.656,28.374,287.4,28.374z M277.885,119.72h-43.77V47.405h43.77
			V119.72z"/>
	</g>
</g>
<g>
	<g>
		<path d="M384.139,28.374h-62.802c-5.255,0-9.516,4.259-9.516,9.516v91.346c0,5.257,4.26,9.516,9.516,9.516h62.802
			c5.255,0,9.516-4.259,9.516-9.516V37.889C393.655,32.633,389.395,28.374,384.139,28.374z M374.623,119.72h-43.77V47.405h43.77
			V119.72z"/>
	</g>
</g>
<g>
</g>
<g>
</g>
<g>
</g>
<g>
</g>
<g>
</g>
<g>
</g>
<g>
</g>
<g>
</g>
<g>
</g>
<g>
</g>
<g>
</g>
<g>
</g>
<g>
</g>
<g>
</g>
<g>
</g>
</svg>
