<?xml version="1.0" encoding="iso-8859-1"?>
<!-- Generator: Adobe Illustrator 18.1.1, SVG Export Plug-In . SVG Version: 6.00 Build 0)  -->
<svg version="1.1" id="Capa_1" xmlns="http://www.w3.org/2000/svg" xmlns:xlink="http://www.w3.org/1999/xlink" x="0px" y="0px"
	 viewBox="0 0 202.706 202.706" style="enable-background:new 0 0 202.706 202.706;" xml:space="preserve">
<g>
	<path style="fill:#010002;" d="M197.844,4.871c-3.228-3.228-7.891-4.867-13.854-4.867c-15.955,0-40.176,11.538-68.209,32.478
		c-0.998,0.748-1.711,0.834-3.01,0.981c-3.142,0.34-7.05,0.777-14.956,8.679c-6.528,6.535-8.396,9.591-9.896,12.05
		c-0.977,1.596-1.743,2.856-4.012,4.95c-4.277,3.962-8.521,8.042-12.619,12.139c-2.036,2.036-4.044,4.083-6.166,6.284
		c-1.403,1.406-2.477,1.775-4.101,2.341c-2.165,0.752-4.867,1.693-8.407,5.225c-1.618,1.621-3.267,3.629-5.05,6.148
		c-5.562,7.834-7.086,11.506-8.206,14.187c-0.716,1.714-1.231,2.945-2.763,4.917C4.446,151.725-7.704,185.231,4.887,197.821
		c3.242,3.246,7.913,4.882,13.872,4.882h0.004c24.744,0,70.024-28.645,112.666-71.294c26.036-26.033,47.23-53.293,59.688-76.745
		C203.76,30.86,206.147,13.177,197.844,4.871z M18.848,197.027c-4.348,0-7.659-1.12-9.849-3.31
		c-8.446-8.446-0.594-32.85,20.489-63.743c3.611,2.759,7.469,5.44,11.481,7.97c9.012,5.665,18.045,10.15,25.46,12.612
		c4.037,1.346,7.419,2.029,10.071,2.029c2.58,0,4.538-0.648,5.816-1.922c0.272-0.272,0.523-0.587,0.744-0.941
		c2.208-3.504,0.039-8.672-6.435-15.364c-5.433-5.612-13.385-11.821-22.393-17.501c-3.511-2.201-7.165-4.298-10.873-6.224
		c0.576-1.063,0.998-2.044,1.378-2.967c1.056-2.541,2.376-5.712,7.569-13.038c1.596-2.248,3.046-4.015,4.431-5.393
		c2.588-2.602,4.352-3.214,6.213-3.854c1.439-0.501,2.985-1.099,4.642-2.333c2.355,1.607,4.33,2.91,6.209,4.094
		c11.946,7.523,23.925,13.46,33.734,16.728c10.253,3.411,17.017,3.547,20.192,0.376c0.333-0.336,0.619-0.705,0.863-1.092
		c2.67-4.245-0.179-10.737-8.464-19.301c-7.183-7.43-17.712-15.647-29.651-23.159c1.038-1.249,1.678-2.29,2.409-3.497
		c1.342-2.194,3.013-4.917,9.069-10.983c6.442-6.438,9.105-6.732,11.463-6.993c1.238-0.143,2.562-0.326,4.015-1.02
		c0.859,0.565,1.721,1.127,2.609,1.693c9.008,5.665,18.041,10.15,25.46,12.619c7.974,2.666,13.313,2.688,15.876,0.111
		c0.279-0.268,0.526-0.587,0.755-0.945c5.103-8.103-15.028-23.377-22.393-28.574c18.17-11.252,33.813-17.443,44.095-17.443
		c4.384,0,7.712,1.117,9.91,3.31c6.549,6.546,3.253,23.001-9.026,45.158c-12.662,22.851-33.04,48.837-57.383,73.173
		C86.928,167.705,41.312,197.027,18.848,197.027z M68.254,145.054c-6.975-2.319-15.568-6.596-24.204-12.025
		c-3.819-2.398-7.594-5.035-11.23-7.848c2.276-3.192,4.695-6.46,7.208-9.738c3.726,1.918,7.455,4.051,11.105,6.338
		c8.614,5.426,16.184,11.323,21.308,16.62c5.118,5.293,5.608,7.73,5.662,8.203C77.637,146.79,75.58,147.499,68.254,145.054z
		 M123.676,100.072c-0.089,0.136-0.855,0.651-3.028,0.651c-1.915,0-5.436-0.412-11.288-2.355
		c-9.38-3.128-20.915-8.858-32.478-16.141c-1.668-1.041-3.307-2.144-4.971-3.267c4.706-4.821,9.527-9.541,14.34-14.047
		c0.369,0.229,0.734,0.451,1.102,0.684c11.56,7.272,21.72,15.196,28.599,22.3C122.917,95.101,124.173,99.274,123.676,100.072z
		 M157.303,48.493c0,0-0.419,0.265-1.711,0.265c-1.374,0-3.926-0.304-8.271-1.746c-6.968-2.323-15.561-6.589-24.197-12.029
		c-0.172-0.107-0.34-0.218-0.508-0.326c4.015-2.92,7.974-5.665,11.792-8.163C151.77,38.215,157.786,47.405,157.303,48.493z"/>
</g>
<g>
</g>
<g>
</g>
<g>
</g>
<g>
</g>
<g>
</g>
<g>
</g>
<g>
</g>
<g>
</g>
<g>
</g>
<g>
</g>
<g>
</g>
<g>
</g>
<g>
</g>
<g>
</g>
<g>
</g>
</svg>
