<?xml version="1.0" encoding="iso-8859-1"?>
<!-- Generator: Adobe Illustrator 19.0.0, SVG Export Plug-In . SVG Version: 6.00 Build 0)  -->
<svg version="1.1" id="Layer_1" xmlns="http://www.w3.org/2000/svg" xmlns:xlink="http://www.w3.org/1999/xlink" x="0px" y="0px"
	 viewBox="0 0 512 512" style="enable-background:new 0 0 512 512;" xml:space="preserve">
<g>
	<g>
		<rect x="111.101" y="267.958" width="16.77" height="15.722"/>
	</g>
</g>
<g>
	<g>
		<path d="M436.031,331.546H409.93c-24.023,0-46.607,9.354-63.594,26.341c-14.017,14.017-32.653,21.737-52.477,21.737h-61.905
			l2.639-7.904h-10.907c-5.205,0-10.24,0.734-15.024,2.076l14.813-169.98l0.029-0.682c0-21.993-17.925-39.887-39.957-39.887
			c-10.031,0-19.203,3.722-26.227,9.847c-2.426-7.888-6.845-14.907-12.657-20.486l3.166-9.499c0.832-2.499,3.162-4.178,5.796-4.178
			c3.369,0,6.109,2.741,6.109,6.109v10.069h15.722v-10.069c0-12.038-9.793-21.831-21.831-21.831
			c-9.412,0-17.734,5.998-20.711,14.927l-1.774,5.323c-3.702-1.67-7.649-2.885-11.776-3.569V66.967
			c0-13.339,10.852-24.191,24.191-24.191s24.19,10.852,24.19,24.191v24.039h15.722V66.967c0-22.008-17.905-39.913-39.912-39.913
			c-22.008,0-39.913,17.905-39.913,39.913v72.924c-4.126,0.684-8.074,1.899-11.775,3.569l-1.774-5.322
			c-2.976-8.929-11.299-14.928-20.711-14.928c-12.037,0-21.831,9.794-21.831,21.831v10.069h15.722v-10.069
			c0-3.369,2.741-6.109,6.109-6.109c2.634,0,4.963,1.679,5.795,4.177l3.166,9.499c-5.728,5.499-10.102,12.396-12.55,20.146
			c-6.959-5.979-16.016-9.599-25.968-9.599C17.729,163.154,0,181.158,0,203.159v0.303l18.713,246.21
			c0.174,18.615,15.166,33.71,33.877,33.71c11.59,0,21.692-4.977,28.004-12.736c7.46,8.741,18.546,14.299,30.911,14.299
			c12.282,0,23.3-5.485,30.759-14.124c6.217,7.84,16.353,12.562,28.245,12.562c8.479,0,16.439-3.041,22.686-8.632
			c8.778,5.754,19.248,9.117,30.49,9.117h10.907l-0.126-0.379h201.562c41.891,0,75.971-34.08,75.971-75.971
			S477.922,331.546,436.031,331.546z M52.794,467.66c-10.15,0-18.205-8.218-18.205-18.314v-0.303l-6.671-85.709h19.248v-15.722
			H26.695L15.426,202.825c0.152-13.203,10.816-23.949,24.154-23.949c13.43,0,24.357,10.474,24.357,24.099h0.092l1.157,40.876H39.83
			v15.722h25.801l5.234,184.848c0.008,2.777,0.298,5.49,0.839,8.112C71.013,462.275,61.741,467.66,52.794,467.66z M143.26,202.974
			h-15.389v15.722h14.944l-5.701,201.236h-9.243v15.722h8.797l-0.239,8.427l-0.003,0.222c0.001,13.742-11.178,24.921-24.919,24.921
			c-13.741,0-24.92-11.179-24.92-24.92l-0.928-32.755h25.442v-15.722H85.215l-2.73-96.426h28.616v-15.722H82.04l-2.737-96.624
			c0.057-17.71,14.482-32.099,32.204-32.099c17.722,0,32.148,14.389,32.204,32.099L143.26,202.974z M170.512,467.66
			c-12.318,0-18.849-7.63-19.071-15.852c0.45-2.397,0.7-4.863,0.708-7.387l0.248-8.766h15.917
			c1.526,10.807,6.146,20.641,12.934,28.573C178.144,466.465,174.433,467.66,170.512,467.66z M168.313,419.933h-15.471l5.018-177.13
			h9.839v-15.722h-8.385v-23.895c0-13.353,10.872-24.218,24.235-24.218c13.256,0,24.061,10.669,24.233,23.846l-11.248,129.076
			h-20.451v15.722h19.081l-2.951,33.874C179.51,390.201,170.559,404.018,168.313,419.933z M212.228,466.103
			c-16.609-4.947-28.757-20.358-28.757-38.554s12.147-33.608,28.757-38.554l-5.225,15.677l15.251,22.877l-15.251,22.877
			L212.228,466.103z M436.031,467.766H229.259l-4.909-14.813l16.8-25.377l-16.8-25.173l2.357-7.058h67.155
			c24.023,0,46.607-9.354,63.594-26.341c14.017-14.017,32.654-21.737,52.477-21.737h26.101c33.222,0,60.249,27.028,60.249,60.249
			S469.253,467.766,436.031,467.766z"/>
	</g>
</g>
<g>
	<g>
		<path d="M464.398,407.355c0,20.962-16.32,36.684-36.38,36.684h-51.746v15.722h51.746c28.729,0,52.101-23.058,52.101-52.405
			H464.398z"/>
	</g>
</g>
<g>
	<g>
		<rect x="319.675" y="444.04" width="39.828" height="15.722"/>
	</g>
</g>
<g>
</g>
<g>
</g>
<g>
</g>
<g>
</g>
<g>
</g>
<g>
</g>
<g>
</g>
<g>
</g>
<g>
</g>
<g>
</g>
<g>
</g>
<g>
</g>
<g>
</g>
<g>
</g>
<g>
</g>
</svg>
